<svg xmlns="http://www.w3.org/2000/svg" enable-background="new 0 0 50 50" viewBox="0 0 50 50" id="labour-hat">
  <path fill="#444445" d="M28.9666,31.2263c0,0-0.2943,12.6804-7.3907,15.89c-2.5222-0.4875-3.7887-1.2577-4.3273-1.6824
			c-0.5631-5.1891,1.9164-15.01,1.9164-15.01l-1.9052-0.1395l-1.5481,7.4995c-0.892,5.0089,0.0743,6.9502,0.8464,7.699
			c0.2042,0.252,1.2874,1.4299,4.3102,2.0027c0.1314,0.0344,0.3572,0.0825,0.6511,0.1091c0.0046,0.0007,0.0086,0.0016,0.0132,0.0022
			l0.0001-0.001c1.6198,0.1426,5.3235-0.3934,7.434-7.5796c0,0,2.3719-7.3251,2.5464-9.3134L28.9666,31.2263z"></path>
  <path fill="#F5B948" d="M48.6555,31.0206c-0.35,0.2001-1.6,0.4401-3.19,0.6901c-5.32,0.8199-10.71,1.1099-16.09,0.9299l-12.11-0.4
			c-3.41-0.11-6.8-0.5399-10.11-1.36c-3.9-0.98-7.67-2.51-5.54-4.5601l6.63-3.7799v0.01c9.34,7.66,39.4,6.24,39.4,6.24l1.15,1.15
			C49.1155,30.2606,49.0555,30.8105,48.6555,31.0206z"></path>
  <path fill="#FFCA67" d="M47.6439,20.5849v8.2078c0,0-30.0632,1.4184-39.4003-6.2453c0-11.1343,9.0204-20.1615,20.1546-20.1615
			C40.5808,2.3859,47.6439,11.289,47.6439,20.5849z"></path>
  <path fill="#F5B948" d="M40.4483,6.0924c-8.8116-1.3218-13.3855,1.7724-16.2548,7.5784
				C26.2046,6.1289,34.0276,3.9678,40.4483,6.0924z"></path>
  <path fill="#F5B948" d="M36.4545 3.7906c-7.7138-.7721-12.0502 2.0632-14.8388 7.7465C23.8537 3.1625 32.8985 2.266 36.4545 3.7906zM26.0157 2.5305c-3.5158 1.2422-5.3661 3.593-6.9752 6.872.7054-2.6397 2.225-4.9371 4.5515-6.4382C24.3838 2.7716 25.1894 2.62 26.0157 2.5305z"></path>
</svg>
